<?xml version="1.0" encoding="UTF-8"?>
<svg id="_レイヤー_2" data-name="レイヤー 2" xmlns="http://www.w3.org/2000/svg" viewBox="0 0 400.04 237.87">
  <defs>
    <style>
      .cls-1 {
        fill: #60ff39;
      }

      .cls-2 {
        fill: #3bffcc;
      }

      .cls-3 {
        fill: #feff86;
      }

      .cls-4 {
        fill: #ff3bd1;
      }

      .cls-5 {
        fill: #e24717;
      }

      .cls-6 {
        fill: #ffcc3b;
      }

      .cls-7 {
        fill: #3bb0ff;
      }

      .cls-8 {
        fill: #ff3b6e;
      }

      .cls-9 {
        fill: #ff3eff;
      }
    </style>
  </defs>
  <g id="_レイヤー_1-2" data-name="レイヤー 1">
    <g>
      <g>
        <g>
          <path d="M50.9,161.42c-12.6-.02-27.53-.68-33.15-.93l-1.12-.05-.51,.07-1.4-.2c-5.12-.72-9.2-4.76-9.92-9.82l-.11-.74c-.78-4.79-2.25-18.34-3.29-31.99C.16,101.45,0,83.89,0,77.09v-.33c0-1.89,.46-3.76,1.37-5.55l.31-.6,2.21-3.2,.94-.37c.68-.54,1.42-1,2.21-1.36l.43-.21c14.54-7.31,28.51-13.12,39.33-16.35,9.44-2.78,17.04-4.63,23.5-4.63,8.05,0,14.53,2.85,19.8,8.71,10.21,11.24,9.4,34.55,8.69,55.12v.34c-.64,17.28-2.25,33.76-2.93,40.19v.49s-.21,1.06-.21,1.06c-.99,4.91-4.65,8.66-9.32,9.54l-.51,.1-.52,.04c-.18,.01-18.49,1.36-34.16,1.36h-.25Z"/>
          <path d="M136.6,161.51c-3.7,0-6.96-1.76-9.06-4.53-1.09,.36-2.25,.55-3.44,.55-1.09,0-2.17-.16-3.22-.48-5.08-1.37-10.06-2.68-14.78-3.89l-.5-.14c-2.86-.92-5.19-2.83-6.72-5.52l-.17-.32c-1.2-2.33-1.59-5.01-1.14-7.75,.02-.16,.08-.47,.16-.95,1.73-10.31,3.06-19.55,3.94-27.46,1.06-9.92,1.97-23.03,2.14-25.7-3.71-1.91-6.22-5.82-6.29-10.46l-.33-21.43c-.09-5.89,3.76-11.01,9.17-12.2l2.03-.49,2.42-.5c4.97-1.03,8.33-1.72,11.93-2.34,.35-5.84,4.56-10.67,10.13-11.42,9.28-1.25,18.73-2.26,28.08-2.99l.78-.03h.12c-.05-.99,.01-2.01,.19-3.04,.51-3.02,2.12-5.72,4.53-7.6,1.43-1.09,2.77-2.1,4.11-3.11l.38-.27c.75-.5,1.53-.91,2.33-1.22,.82-1.26,1.83-2.29,3-3.1,1.28-.97,2.55-1.93,3.83-2.89,1.94-1.45,4.24-2.22,6.65-2.22,4.05,0,7.75,2.17,9.9,5.79l1.39,2.34v.52c.74,1.58,1.96,4.33,3.07,7.55,1.35,3.6,2.65,8.04,3.13,10.21,1.29,4.9-.54,10.31-4.48,13.2-.46,.35-.93,.7-1.41,1.06,.59,1.49,.91,3.11,.91,4.78l.05,23.12c0,4.76-2.45,8.87-6.26,10.92,.02,.18,.04,.36,.06,.55l.02,.25v.25c.11,1.38,1.33,16.28,2.67,27.56,1.02,8.27,2.51,18.1,4.42,29.2,0,0,.18,1.07,.22,1.28,.38,2.28,.11,4.72-.77,6.89-1.22,3.17-3.65,5.56-6.84,6.73l-.44,.15-15.02,4.45c-1.11,.35-2.25,.54-3.41,.54s-2.23-.17-3.27-.49c-.34,.46-.72,.9-1.12,1.31-2.15,2.16-4.98,3.35-7.98,3.35h-25.1s0,0,0,0Z"/>
          <path d="M236.94,161.22c-5.44,0-9.63-.73-11.57-1.35-3.73-1.13-6.64-4.23-7.72-8.27-2.32-8.99-4.63-17.94-6.96-26.9-.97-3.35-.23-6.39,.3-7.91,1.27-3.63,4.14-6.31,7.87-7.35l1.48-.41c.35-.11,.79-.26,1.29-.45-.04,0-.08,0-.11,0-2.96,0-5.85-1.2-7.95-3.28-2.05-2.02-3.33-4.86-3.52-7.79l-1.92-17.51c-.81-6.37-2.02-14.35-2.48-17.12l-.15-.76-.07-.43c-.43-2.55-.07-5.23,1.02-7.54l.16-.32c1.53-2.9,3.86-4.94,6.74-5.91l.63-.19,.09-.02c4.17-1.05,8.33-2.05,12.35-2.97l.67-.13c.57-.09,1.15-.14,1.73-.14,.26,0,.51,0,.77,.03,.83-.49,1.72-.88,2.65-1.15l.23-.07,.44-.11c4.21-.91,8.39-1.76,12.44-2.54l.62-.1h.1c.44-.06,.88-.09,1.31-.09,4.42,0,8.31,2.54,10.23,6.43,1.4-.62,2.95-.97,4.58-.97,.39,0,.77,.02,1.16,.06l.55,.07c7.58,1.29,15.27,2.73,22.86,4.29l.61,.13,.59,.2c4.73,1.61,8.07,6.28,8.16,11.37,.58,15.11,.69,52.16-10.7,71.29-14.32,24.29-36.52,27.91-48.48,27.91Z"/>
          <path d="M308.5,161.66v-3.42c-1.97-2-3.2-4.68-3.44-7.61l-.04-.5v-.28c0-.14-.01-.28-.02-.42-.79-16.21-1.33-34.18-1.51-50.62-.29-25.35,.35-45.89,.56-51.58v-.18c.11-6.24,5.04-11.19,11.24-11.19,.89,0,1.78,.11,2.65,.32,11.6,2.82,23.22,6.09,34.55,9.73,4.99,1.61,8.43,6.42,8.38,11.72v.07c0,1.41,.01,4.56-.02,8.95,3.68,.41,7.08,2.66,9.09,6.08l1.44,2.46v.44c1.69,3.24,5.05,8.75,8.51,11.88,3.09,2.8,7.17,5.27,12.11,7.34,.18,.08,.35,.15,.5,.21,2.43,.93,4.48,2.68,5.79,4.94,1.56,2.48,2.11,5.51,1.52,8.34-1.22,6.52-2.46,13.18-3.71,19.96-.85,5.1-5.15,8.95-10.44,9.25l-1.09,.06-.2-.03c-.52,.01-1.22,.03-2.06,.03-6.35,0-15.2-.85-24.08-4.47-.56,7.83-1.08,13.92-1.38,17.26l-.06,.68c-.72,6.02-5.65,10.56-11.46,10.56h-36.81Z"/>
        </g>
        <g>
          <path class="cls-3" d="M50.9,155.42c-12.46-.02-27.3-.67-32.89-.92,0,0-1.41-.06-1.68-.07l-.22,.03-.56-.08c-2.49-.35-4.46-2.29-4.81-4.72l-.11-.78c-.77-4.67-2.23-18.27-3.24-31.56-1.22-16.12-1.37-33.51-1.38-40.24v-.33c0-.94,.24-1.89,.72-2.83l.12-.24,.94-1.37,.23-.09c.47-.5,1-.87,1.6-1.13l.54-.27c14.24-7.16,27.86-12.83,38.36-15.96,8.92-2.63,16.04-4.38,21.78-4.38,6.34,0,11.21,2.14,15.34,6.72,8.59,9.45,7.79,32.43,7.16,50.9v.33c-.64,17.21-2.25,33.64-2.92,39.91l-.02,.22v.2s-.08,.43-.08,.43c-.52,2.55-2.26,4.4-4.55,4.83l-.21,.04-.21,.02c-.17,.01-18.21,1.34-33.66,1.34h-.25Zm-7.41-61.83c.04,1.25,.08,2.41,.14,3.5,.26,4.46,.63,9.02,1.03,12.82,1.09-.12,2.36-.28,3.79-.46,1.75-.23,3.25-.44,4.49-.63,.09-1.59,.19-3.82,.21-6.4l-.08-4.9c-.06-3.95-.32-5.71-.49-6.45-.76,.03-2.05,.25-4.02,.68-1.32,.29-3.08,.79-5.09,1.38,0,.15,.01,.31,.02,.46Z"/>
          <path class="cls-3" d="M136.6,155.51c-3.06,0-5.48-2.61-5.52-5.94,0,0-.22-6.36-.31-9.06-.4,1.97-.83,3.99-1.32,6.03l-.18,.76c-.75,2.57-2.77,4.22-5.17,4.22-.52,0-1.04-.08-1.54-.24-5.15-1.39-10.19-2.72-14.98-3.95l-.18-.05c-1.43-.46-2.53-1.39-3.32-2.78-.67-1.3-.85-2.63-.6-4.14,.02-.13,.06-.41,.15-.9,1.75-10.43,3.1-19.77,3.99-27.79,1.18-11,2.16-25.79,2.19-26.51,.16-2.1,1.17-3.9,2.65-4.95l-1.32,.09-2.03,.26h-.34c-2.95-.14-5.22-2.63-5.27-5.81l-.33-21.43c-.05-3.09,1.87-5.73,4.56-6.27l1.79-.44,2.48-.51c7.2-1.49,10.82-2.23,16.75-3.08l-.05-4.26c-.04-3.23,2.09-5.96,4.96-6.35,9.17-1.24,18.5-2.23,27.74-2.96,0,0,.33-.01,.33-.01,3.16,0,5.5,2.6,5.53,6.04v.13c.05,1.16,.08,2.39,.1,3.67,2.01-.1,3.86-.16,5.78-.18-.58-1.76-1.16-3.52-1.73-5.28-.69-2.06-1.54-4.35-2.17-6.01h-.02l-.51-1.32-.48-1.32c-.43-1.18-.53-2.42-.3-3.78,.26-1.54,1.08-2.91,2.3-3.86,1.37-1.04,2.7-2.05,4.04-3.05l.13-.1c.95-.63,1.97-.95,3.01-.95,.02,0,.04,0,.06,0l.02-.07c.54-1.58,1.33-2.72,2.36-3.38,1.31-1,2.63-1.99,3.94-2.98,.89-.67,1.95-1.02,3.05-1.02,1.91,0,3.68,1.07,4.75,2.86l.56,.94v.22c.69,1.43,2.13,4.47,3.4,8.2,1.26,3.35,2.56,7.73,2.96,9.62,.73,2.56-.19,5.47-2.2,6.94-1.43,1.07-2.89,2.17-4.35,3.28-.92,.68-1.95,1.04-3.02,1.07-.03,.09-.06,.17-.1,.26,2.61,.49,4.51,2.98,4.52,6.08l.05,23.12c0,3.09-1.9,5.62-4.64,6.16l-.35,.07-2.16,.04s-2.43,.19-3.2,.26c2.24,.66,3.93,2.79,4.17,5.45l.02,.25c.06,.9,1.31,16.32,2.69,27.99,1.03,8.38,2.53,18.31,4.47,29.52l.02,.14c.1,.58,.15,.88,.18,1.07,.21,1.22,.06,2.56-.42,3.73-.59,1.56-1.77,2.73-3.34,3.31l-.19,.06-15.02,4.44c-.46,.16-1.03,.25-1.59,.25-2.48,0-4.54-1.75-5.17-4.36-.27-.9-.87-3.22-1.6-6.65-.03,2.79-.07,5.54-.11,8.26v.92c0,1.66-.64,3.29-1.77,4.43-1.01,1.02-2.34,1.58-3.73,1.58h-25.1s0,0,0,0Zm31.02-79.13c.07,0,.15-.02,.23-.02,.74-.09,1.48-.17,2.22-.25-.78,.05-1.59,.11-2.44,.17,0,.04,0,.07,0,.11Z"/>
          <path class="cls-3" d="M236.94,155.22c-4.72,0-8.41-.63-9.74-1.06-1.83-.56-3.21-2.06-3.75-4.1-2.32-8.99-4.65-17.99-6.99-27-.53-1.7-.11-3.42,.19-4.29,.61-1.75,2-3.04,3.81-3.55l1.12-.31h.02c3.47-1.04,15.54-5.45,25.54-18.32,.12-.15,.24-.31,.36-.48-2.1,.51-4.21,1.04-6.33,1.57-.38,.11-.84,.18-1.31,.18-.62,0-1.23-.12-1.81-.34-.73,.73-1.62,1.24-2.61,1.45-3.97,1.04-8.2,2.19-12.5,3.39-.42,.13-.92,.21-1.43,.21-1.38,0-2.73-.56-3.71-1.53-1.04-1.03-1.7-2.53-1.77-4.04-.64-5.88-1.29-11.77-1.94-17.66-.89-7.02-2.15-15.24-2.58-17.76l-.1-.47-.07-.43c-.23-1.35-.04-2.77,.53-3.99,.86-1.63,1.95-2.62,3.37-3.09l.22-.06c4.21-1.06,8.32-2.05,12.3-2.96l.2-.04c.33-.05,.6-.07,.86-.07,.79,0,1.56,.18,2.27,.53,.71-.89,1.71-1.56,2.85-1.9l.23-.06c4.18-.9,8.29-1.74,12.3-2.51l.21-.03c.28-.03,.49-.05,.7-.05,2.62,0,4.76,1.81,5.35,4.52,.43,1.57,2.03,8.16,3.29,16.05,.46-4.13,.66-7.55,.75-9.45,.03-3.15,2.41-5.66,5.42-5.66,.18,0,.36,0,.54,.03l.19,.03c7.51,1.28,15.11,2.7,22.63,4.25l.25,.05,.24,.08c2.37,.81,4.09,3.28,4.09,5.89,.44,11.27,1.04,49.73-9.86,68.02-12.81,21.74-32.64,24.98-43.32,24.98Z"/>
          <path class="cls-3" d="M314.5,155.66v-.42c-1.88-.82-3.27-2.76-3.46-5.08l-.02-.2v-.1s.03,0,.03,0c-.04-.28-.05-.53-.06-.72-.79-16.13-1.32-34.02-1.51-50.39-.28-25.23,.35-45.64,.55-51.3v-.2c.06-3.01,2.36-5.39,5.24-5.39,.41,0,.83,.05,1.23,.15,11.46,2.78,22.94,6.01,34.12,9.61,2.48,.8,4.26,3.32,4.22,5.99v.11c0,2.33,.01,8.25-.11,16.46,1.01-.43,2.01-.84,3.01-1.24,.62-.24,1.23-.36,1.85-.36,2.02,0,3.99,1.22,5.14,3.18l.58,.98v.24c1.39,2.9,5.64,10.56,10.53,14.97,3.6,3.26,8.25,6.09,13.83,8.42,.21,.09,.38,.16,.54,.23,1.23,.44,2.28,1.34,2.92,2.49,.82,1.24,1.09,2.7,.77,4.11-1.21,6.49-2.46,13.18-3.72,20-.4,2.4-2.41,4.21-4.89,4.35l-.44,.03-.12-.02h-.25c-.51,.02-1.26,.04-2.21,.04-7.1,0-17.6-1.16-27.28-6.67-.73-.41-1.45-.88-2.18-1.4-.75,11.97-1.55,21.47-1.98,26.32l-.05,.54c-.36,2.97-2.77,5.25-5.5,5.25h-30.8Z"/>
        </g>
        <g>
          <path class="cls-5" d="M88.78,108.3c-.76,20.77-2.93,39.98-2.93,40.1-.18,.91-.67,1.57-1.37,1.7-.2,.02-18.28,1.34-33.58,1.32-15.3-.03-34.61-1.03-34.8-1-.7-.1-1.3-.61-1.4-1.32-.1-.2-1.84-12.51-3.32-32.08-1.38-18.26-1.37-38.23-1.37-40.16q0-.1,0-.1c0-.3,.1-.64,.29-1.01,.03-.05,.06-.09,.1-.14,.1-.04,.1-.14,.1-.14t.1-.04c.19-.28,.38-.55,.67-.67,.27-.09,20.63-10.75,38.41-16.05,18.16-5.36,26.29-6.28,33.01,1.18,7.55,8.31,6.73,30.79,6.12,48.41Zm-33.96-20.78c-1.3-.7-2.88-.61-7.12,.32-2.07,.45-5.02,1.35-8.35,2.35,.13,2.6,.16,4.99,.28,7.13,.5,8.46,1.17,14.43,1.5,16.91,1.09-.03,3.37-.23,7.83-.81,4.36-.56,6.65-.96,7.74-1.22,.17-1.83,.41-5.5,.45-9.74,0-.08,0-.16,0-.24-.03-1.69-.05-3.26-.08-4.84-.08-5.32-.44-8.9-2.24-9.85Z"/>
          <path class="cls-5" d="M130.25,84.6c.01,.69,1.1,15.77-.29,32.5-1.3,16.73-4.44,28.54-4.53,29.09-.29,.98-.98,1.55-1.68,1.27-5.06-1.37-10.11-2.7-15.17-3.99-.4-.13-.71-.4-1.02-.94-.21-.41-.22-.95-.12-1.5,0-.13,2.58-14.63,4.17-28.91,1.23-11.48,2.22-26.64,2.22-26.78,.08-1.11,.78-2.02,1.58-2.11,4.47-.16,8.94-.27,13.41-.34,.71-.06,1.32,.73,1.44,1.71Zm33.39-12.07c-.06,6.13,0,12.97-.06,19.97,.02,31.63-.4,56.68-.39,56.97,0,1.16-.69,2.04-1.49,2.04-8.37,0-16.73,0-25.1,0-.8,0-1.51-.85-1.52-1.99,0-.29-.9-24.68-1.58-55.41-.08-6.8-.27-13.46-.34-19.41-8.79,.71-12.22,.91-22.4,1.61-.6,.08-1.21,.15-1.81,.23-.81-.03-1.42-.77-1.44-1.86-.11-7.14-.22-14.28-.33-21.42-.02-1.09,.57-2.15,1.38-2.29,.64-.16,1.27-.31,1.91-.46,10.08-2.08,13.52-2.85,22.34-4-.06-4.82-.09-7.65-.1-7.79-.01-1.13,.69-2.22,1.5-2.33,9.14-1.24,18.32-2.21,27.51-2.93,.92-.07,1.54,.9,1.55,2.07,0,.15,.12,3.05,.16,8.01,8.77-.56,12.35-.47,22.57-.33,.65,.03,1.29,.07,1.94,.1,.82-.02,1.43,1,1.44,2.18,.02,7.71,.03,15.41,.05,23.12,0,1.18-.61,2.07-1.42,2.23-.64,.01-1.29,.02-1.93,.03-10.16,.82-13.71,1.1-22.44,1.66Zm27.04,67.64c.1,.59,0,1.18-.2,1.62-.2,.59-.6,.88-1,1.03-5.01,1.48-10.01,2.96-15,4.44-.8,.29-1.5-.29-1.71-1.31-.2-.59-3.48-12.88-5.2-30.07-1.72-17.19-.92-32.83-.82-33.57,0-1.02,.6-1.92,1.41-1.96,4.49-.52,8.99-1,13.48-1.45,.81-.02,1.53,.85,1.63,2.02,0,.15,1.27,16.15,2.72,28.35,1.86,15.14,4.7,30.74,4.7,30.89Zm-18.68-116.34c-.21-.57-.21-1.16-.11-1.75,.1-.59,.4-1.05,.81-1.37,1.33-1.01,2.66-2.01,3.99-3.01,.72-.48,1.54-.23,1.95,.63,.1,.14,1.97,3.72,3.73,8.51,1.66,4.64,2.79,9.03,2.9,9.32,.21,1.02-.1,2.21-.81,2.67-1.46,1.12-2.92,2.25-4.38,3.38-.41,.31-.82,.32-1.23,.19-.41-.28-.72-.71-.82-1.29-.93-2.85-1.87-5.69-2.8-8.53-1.35-4.04-3.22-8.76-3.22-8.76Zm21.96,7.73c-1.47,1.1-2.93,2.2-4.4,3.31-.41,.3-.82,.31-1.23,.17-.41-.14-.72-.57-.92-1.16-.89-2.87-1.79-5.74-2.69-8.61-1.34-4.08-3.21-8.85-3.21-9-.21-.43-.31-1.16-.21-1.61,.2-.6,.51-1.2,.82-1.36,1.37-1.04,2.73-2.07,4.1-3.1,.62-.46,1.44-.19,1.96,.68,0,.15,1.96,3.77,3.61,8.61,1.75,4.68,2.88,9.24,2.88,9.39,.31,1.03-.1,2.21-.71,2.66Z"/>
          <path class="cls-5" d="M220.02,96.72c-.65-5.94-1.3-11.88-1.96-17.82-1.08-8.55-2.68-18.74-2.78-18.89-.1-.59,0-1.18,.21-1.61,.31-.58,.61-.87,1.02-1,4.04-1.02,8.09-2,12.14-2.92,.71-.11,1.42,.51,1.72,1.4,.1,.44,2.09,8.45,3.55,18.15,1.46,9.85,1.9,18.46,1.9,18.9,.09,1.02-.52,2.02-1.23,2.14-4.25,1.12-8.5,2.27-12.75,3.46-.41,.14-.91-.02-1.21-.32-.3-.3-.6-.89-.6-1.48Zm56.81,31.46c-16.93,28.73-47.1,22.67-48.42,22.16-.5-.15-.9-.59-1.09-1.32-2.32-8.98-4.65-18-6.99-27.03-.2-.59-.1-1.32,.11-1.91,.2-.58,.61-.87,1.11-1.01,.11,.03,16.1-3.74,28.77-20.03,8.17-10.58,10.05-32.33,10.45-41.3,.01-1.14,.73-1.92,1.54-1.84,7.5,1.27,14.98,2.68,22.43,4.21,.7,.24,1.4,1.17,1.38,2.14,.44,11.36,.97,48.7-9.3,65.93Zm-42.99-72.72c-.1-.59,0-1.17,.21-1.74,.21-.43,.62-.69,1.02-.82,4.05-.88,8.09-1.7,12.14-2.47,.71-.08,1.42,.41,1.62,1.44,.1,.3,2.16,8.28,3.59,18.04,1.32,9.61,1.74,18.25,1.84,18.54-.01,1.15-.53,2.12-1.24,2.23-4.29,1-8.58,2.04-12.86,3.13-.41,.13-.81-.03-1.11-.34-.4-.31-.6-.9-.7-1.48-.63-5.9-1.26-11.8-1.9-17.71-.95-8.5-2.62-18.67-2.62-18.81Z"/>
          <path class="cls-5" d="M390.01,106.35c-1.23,6.58-2.48,13.3-3.75,20.14-.1,.6-.59,1.05-1.19,1.09-.58-.1-15.15,1.27-28.08-6.1-2.76-1.57-5.31-3.96-7.66-6.62-1.09,20.13-2.51,35.02-2.51,35.14-.11,.95-.82,1.67-1.52,1.67-9.6,0-19.2,0-28.8,0-.7,0-1.39-.78-1.47-1.82,0-.25-1.22-22.64-1.54-51.14-.32-28.63,.55-51.09,.56-51.33,.02-1.05,.73-1.67,1.53-1.47,11.38,2.76,22.67,5.94,33.84,9.53,.78,.25,1.46,1.18,1.45,2.13,0,.12,.06,9.27-.23,22.81,2.88-1.32,5.76-2.56,8.62-3.72,.69-.27,1.57,.33,2.05,1.14,0,.14,5.07,10.99,11.87,17.14,7,6.34,15.47,9.26,15.57,9.41,.39,.09,.78,.39,.97,.83,.29,.37,.39,.79,.29,1.17Z"/>
        </g>
      </g>
      <g>
        <path class="cls-1" d="M91.88,181.95l-.76,10.25c0,.23-.12,.47-.29,.59-.23,.18-.47,.23-.7,.18-.06,0-7.85-1-11.19,.47-2.29,.94-3.11,3.52-3.46,6.8,6.8,.06,12.07,.35,12.13,.35,.47,.06,.82,.41,.82,.88v9.2c0,.47-.35,.88-.82,.88-.06,0-5.51,.35-12.54,.35l-.41,14.41c0,.53-.41,.88-.88,.88h-23.38c-.47,0-.88-.35-.88-.82,0-.12-.82-12.3-1.05-21.62-.18-9.08-.12-16.29,3.75-20.62,3.52-3.93,8.96-5.39,20.1-5.33,12.54,0,18.75,2.17,18.98,2.29,.41,.12,.64,.47,.59,.88Z"/>
        <path class="cls-2" d="M135.77,207.55c0,11.43-.53,18.75-.59,18.87,0,.41-.41,.76-.88,.76h-15.23c-.41,0-.82-.29-.88-.7,0-.06-.35-1.99-.7-5.04-1.88,2.52-4.34,5.74-4.34,5.74-.18,.23-.59,.41-.94,.29-.53-.12-13.59-3.75-13.71-19.34-.12-11.19,7.32-18.69,18.81-19.16,9.14-.35,16.99,.12,17.05,.12,.47,.06,.82,.41,.82,.82,.06,.06,.59,7.32,.59,17.64Zm-23.32,.18c.06,3.93,2.52,6.62,4.45,8.14-.12-1.29-.23-2.64-.29-4.04-.18-2.29-.35-7.5-.41-11.54-1.46,1-3.75,3.16-3.75,7.32v.12Z"/>
        <path class="cls-7" d="M179.37,221.79c-.23,.23-6.39,5.98-16.76,5.98-11.89,0-19.34-7.56-19.45-19.63-.06-6.15,1.76-11.19,5.21-14.71,3.4-3.4,8.26-5.21,14.12-5.21,11.84,0,15,4.57,15.12,4.8,.23,.29,.23,.64,0,.94l-3.52,5.51c-.23,.35-.7,.47-1.11,.29,0,0-1.29-.64-3.98-.59-1.7,0-3.11,.59-4.16,1.58-1.05,1.17-1.64,2.81-1.58,4.75,.06,3.57,2.87,5.45,5.51,5.45,3.05,0,5.39-.76,5.45-.76,.41-.12,.88,.06,1.05,.47l4.34,10.14c.12,.35,.06,.76-.23,1Z"/>
        <path class="cls-6" d="M222.26,215.11l-1,10.25c-.06,.23-.18,.47-.41,.64s-2.7,1.64-12.71,1.64c-7.79,0-11.54-1.23-14.47-4.8-3.11-3.93-3.11-10.49-3.11-17.52v-1.52c0-1.82,.06-3.69,.12-5.62-2.46-.06-3.98-.12-3.98-.12-.47,0-.88-.35-.88-.88v-7.32c0-.47,.41-.88,.88-.88,0,0,1.64-.06,4.34-.12,.23-5.1,.53-8.85,.53-8.91,0-.47,.41-.82,.88-.82h18.93c.47,0,.88,.35,.88,.82,0,.12,.12,4.28,.23,8.79,4.98,.12,8.26,.23,8.32,.23,.47,0,.82,.41,.82,.88v7.32c0,.53-.35,.88-.82,.88-.06,.06-3.28,.12-8.2,.23,.06,3.11,.23,5.98,.47,8.91,.23,2.23,.88,3.81,1.99,4.92,1.99,1.88,6.33,1.99,6.33,1.99,.23,0,.47,.12,.64,.29s.23,.47,.23,.7Z"/>
        <path class="cls-8" d="M266.15,207.67c0,12.48-7.09,19.92-18.98,19.92s-18.98-7.44-18.98-19.92,7.62-19.86,18.98-19.86,18.98,8.14,18.98,19.86Zm-26.89-3.05c0,2.17,.47,5.8,3.69,5.8s3.63-3.63,3.63-5.8-.47-5.8-3.63-5.8-3.69,3.63-3.69,5.8Z"/>
        <path class="cls-9" d="M307.17,198.18c-.18,.06-11.37,7.91-14.18,15.94,0,7.44-.23,12.19-.29,12.3,0,.41-.41,.82-.88,.82h-18.16c-.23,0-.47-.12-.59-.29-.18-.18-.29-.41-.29-.64,0-.12,.47-11.66,.47-15.41v-1.64c0-4.51,.06-16.58-.12-19.22,0-.23,.06-.47,.23-.64s.41-.29,.64-.29h17.11c.41,0,.82,.35,.88,.82,0,0,.06,1.05,.18,2.75,4.63-2.46,8.96-3.75,9.32-3.87,.41-.12,.82,0,1,.35l4.92,7.79c.23,.41,.12,.94-.23,1.23Z"/>
        <path class="cls-4" d="M350.89,217.34c-1.93,12.71-10.78,19.98-11.19,20.33-.18,.18-.47,.23-.7,.18l-12.71-2.75c-.29-.06-.47-.18-.59-.41s-.18-.47-.12-.7c.06-.06,.82-2.46,1.76-7.03-.59,.06-1.23,.06-1.88,0-4.39-.29-7.62-1.46-10.14-6.27-4.51-8.73,.12-30.29,.35-31.17,.06-.41,.41-.7,.82-.7h8.5c.29,0,.53,.12,.7,.29s.23,.47,.18,.7c-.88,5.51-1.58,15,.29,17.23,.94,1.17,2.4,1.64,3.81,1.88,.76-9.84,.47-19.1,.47-19.22-.06-.23,.06-.47,.23-.64s.35-.23,.64-.23h17.99c.47,0,.82,.29,.88,.7,.06,.12,2.7,14.47,.7,27.83Z"/>
      </g>
      <rect class="cls-3" x="165.98" y="74.65" width="6" height="3"/>
    </g>
  </g>
</svg>