<?xml version="1.0" encoding="UTF-8"?>
<svg id="_レイヤー_2" data-name="レイヤー 2" xmlns="http://www.w3.org/2000/svg" viewBox="0 0 365.82 32.8">
  <g id="_レイヤー_1-2" data-name="レイヤー 1">
    <g>
      <path d="M25.25,8.52l.24,4.76c.03,.27-.17,.51-.44,.54-.1,0-8.64,.71-8.44,4.86,.07,.88,.37,1.56,1.02,2.14,2.04,1.8,6.33,1.5,6.36,1.5,.27-.03,.51,.17,.54,.44l.71,7.11c.03,.2-.07,.41-.24,.51-.2,.1-4.42,2.42-11.73,2.42C5.53,32.8,.22,28.99,.02,23.34c-.07-2.31,.51-4.42,1.67-6.33-.48-.99-.95-2.31-1.26-3.88C-.15,10.11,.02,6.27,.05,6.1c0-.24,.2-.44,.44-.48l10.54-1.05c.31-.03,.54,.17,.58,.44,0,0,.17,1.46,.68,3.03,.14,.48,.41,1.05,.68,1.6,6.16-1.77,11.56-1.63,11.8-1.6,.27,0,.48,.2,.48,.48Zm-6.46-5.2c-.07-.1-.07-.24-.03-.37,.07-.14,.14-.24,.27-.31l1.36-.65c.2-.14,.48-.07,.61,.14,.03,.03,.65,.92,1.22,2.01,.58,1.12,.92,2.14,.95,2.18,.07,.24-.03,.51-.24,.61l-1.5,.75c-.1,.07-.24,.07-.37,.03s-.24-.14-.31-.27l-.92-2.01c-.44-.95-1.02-2.08-1.05-2.11Zm7.28,2.01l-1.46,.75c-.14,.07-.27,.07-.41,0-.14-.03-.24-.14-.27-.27l-.92-2.01c-.44-.95-1.05-2.08-1.05-2.08-.07-.14-.07-.27-.03-.41,.03-.14,.14-.24,.27-.31l1.33-.65c.24-.1,.51-.03,.65,.17,.03,.03,.65,.88,1.22,2.01,.54,1.09,.92,2.11,.92,2.18,.1,.24,0,.48-.24,.61Z"/>
      <path d="M60.24,29.77c-.1,.14-2.72,3.03-6.97,3.03-3.88,0-6.36-1.22-7.82-3.84-.82-1.53-1.02-3.74-1.02-5.54,0-.82,.03-1.56,.07-2.08-.48,.24-1.09,.58-1.63,1.05-.41,.34-.78,.71-1.12,1.09-.14,4.18-.14,8.44-.14,8.5,0,.27-.24,.51-.51,.51l-7.01,.17c-.27,.03-.51-.17-.54-.44,0-.07-.58-5.65-.34-13.23,.24-6.8,1.39-13.43,1.39-13.5,.07-.24,.27-.41,.54-.41l7.41,.27c.14,0,.27,.07,.37,.17,.07,.1,.14,.24,.1,.37,0,.07-.37,3.98-.68,7.92,.85-.37,1.8-.75,2.82-1.02,4.46-1.19,7.65-.85,7.79-.82,.14,0,.27,.07,.34,.2,.1,.1,.14,.24,.1,.37-.24,1.77-.58,6.67,.85,8.23,1.56,1.7,4.01,1.22,4.05,1.22,.27-.07,.54,.1,.61,.37l1.46,6.94c.03,.17-.03,.34-.14,.44Z"/>
      <path d="M93.6,18.21v.07l-.68,4.69c0,.14-.1,.24-.2,.34-.1,.07-.27,.1-.41,.07,0,0-.48-.1-1.22-.2-.34,4.69-2.04,9.52-9.8,9.52-5.78,0-9.56-2.82-9.59-7.25-.03-.65,.03-1.29,.1-1.87h-4.69c-.24,0-.48-.2-.51-.44,0-.03-.31-3.78-.24-8.4,0-.68,.03-1.36,.07-2.04h-.58c-.27,0-.51-.2-.51-.48l-.17-3.81c0-.27,.2-.51,.48-.54,.03,0,.44-.03,1.16-.07,.14-1.43,.27-2.38,.27-2.42,.03-.27,.24-.44,.51-.44l7.14,.17c.14,0,.24,.07,.34,.17,.1,.1,.14,.24,.14,.37,0,0-.03,.85-.1,2.04,2.21,.07,3.74,.17,3.78,.2,.27,0,.48,.24,.48,.51l-.2,3.81c-.03,.27-.27,.48-.54,.48,0,0-1.67-.03-3.81-.07-.07,1.53-.14,2.69-.14,2.69-.07,.95-.1,1.9-.14,2.86,1.5-1.19,3.57-1.8,6.22-1.87h1.09c-.03-.82-.07-1.29-.07-1.29v-.03c0-.14,.03-.27,.14-.34,.1-.1,.24-.17,.37-.17h7.55c.2,0,.37,.1,.48,.31,0,.03,.34,.82,.58,2.42,1.46,.31,2.31,.51,2.35,.54,.24,.03,.37,.24,.37,.48Zm-11.9,4.29c-.85,0-1.56,.03-1.97,.14-.58,.14-1.16,.54-1.16,1.19,0,.61,.48,1.05,1.16,1.09,.48,0,1.29-.1,1.63-.99,.2-.51,.27-.88,.34-1.43Zm-.88-12.82l-.17-3.2c-.03-.27,.17-.51,.44-.54,.14-.03,3.4-.37,5.65-.31,3.98,.14,6.09,1.36,6.22,3.57,.1,2.11-.37,3.3-.41,3.33-.1,.2-.27,.31-.48,.31h-7.14c-.14,0-.27-.03-.34-.14-.1-.1-.17-.24-.17-.37,0,0,0-1.19-.82-1.77-.85-.58-2.21-.41-2.21-.41-.14,0-.27-.03-.37-.14-.1-.07-.17-.2-.2-.34Z"/>
      <path d="M127.51,21.51c-.37,5.34-1.22,10.34-1.22,10.37-.07,.24-.24,.41-.48,.44-.07,0-6.22,.34-11.43,.34s-11.77-.34-11.84-.34c-.24-.03-.44-.2-.48-.44-.03-.07-.61-4.15-1.12-10.85-.48-6.26-.48-13.09-.48-13.74v-.03c0-.1,.03-.2,.1-.31l.03-.03s.03-.03,.03-.03h.03c.07-.07,.14-.14,.24-.14s7.35-.82,13.5-.75c6.29,.07,9.05,.34,11.29,2.69,2.52,2.58,2.11,8.26,1.8,12.82Zm-11.46-6.94c-.44-.27-.99-.34-2.45-.34-.71,0-1.73,.07-2.89,.14,.03,.78,.03,1.5,.07,2.14,.14,2.55,.34,4.35,.44,5.1,.37,.03,1.16,.07,2.69,.07s2.28-.03,2.65-.07c.07-.51,.17-1.53,.2-2.72v-1.43c0-1.5-.1-2.52-.71-2.89Z"/>
      <path d="M141.65,16.58c0,.17,.31,3.81-.24,7.82-.51,4.01-1.63,6.87-1.67,7.01-.1,.24-.34,.37-.58,.31l-5.14-1.02c-.14-.03-.24-.1-.34-.24-.07-.1-.07-.24-.03-.37,0-.03,.95-3.64,1.56-7.14,.48-2.82,.88-6.53,.88-6.56,.03-.27,.27-.48,.54-.48l4.52,.24c.24,0,.44,.2,.48,.44Zm11.26-2.31c-.03,1.43-.03,3.03-.07,4.66-.07,7.38-.27,13.23-.27,13.3,0,.27-.24,.48-.51,.48h-8.54c-.27,0-.51-.2-.51-.48,0-.07-.2-5.92-.31-13.3,0-1.63-.03-3.23-.03-4.66-2.96-.03-4.12-.07-7.55-.2h-.61c-.27-.03-.48-.24-.48-.51v-5.34c0-.27,.2-.51,.48-.51l.65-.03c3.4-.1,4.56-.17,7.52-.17v-1.87c0-.27,.24-.51,.51-.51h9.18c.31,0,.51,.24,.51,.51,0,.03,.03,.71,.03,1.87,2.93,0,4.12,.07,7.52,.17l.65,.03c.27,0,.48,.24,.48,.51v5.34c0,.27-.2,.48-.48,.51h-.65c-3.4,.14-4.59,.17-7.52,.2Zm9.01,15.82c.03,.14,0,.27-.07,.37-.07,.14-.2,.2-.34,.24l-5.1,1.02c-.27,.07-.51-.07-.58-.31-.07-.14-1.16-2.99-1.7-7.01-.54-4.01-.24-7.65-.2-7.82,0-.24,.2-.44,.48-.44l4.52-.24c.27,0,.51,.2,.54,.48,0,.03,.41,3.74,.88,6.56,.61,3.5,1.56,7.11,1.56,7.14Zm-6.12-27.04c-.07-.14-.07-.27-.03-.41,.03-.14,.14-.24,.27-.31l1.33-.65c.24-.1,.51-.03,.65,.17,.03,.03,.65,.88,1.22,2.01,.54,1.09,.92,2.11,.95,2.18,.07,.24-.03,.51-.27,.61l-1.46,.75c-.14,.07-.27,.07-.41,.03-.14-.07-.24-.17-.27-.31l-.92-2.01c-.44-.95-1.05-2.07-1.05-2.07Zm7.28,1.97l-1.46,.75c-.14,.07-.27,.07-.41,.03-.14-.03-.24-.14-.31-.27l-.88-2.01c-.44-.95-1.05-2.07-1.05-2.11-.07-.1-.1-.27-.07-.37,.07-.14,.17-.27,.27-.31l1.36-.68c.2-.1,.48-.03,.65,.17,0,.03,.65,.88,1.19,2.01,.58,1.09,.95,2.14,.95,2.18,.1,.24-.03,.51-.24,.61Z"/>
      <path d="M171.13,20.01l-.68-4.12c-.37-1.97-.92-4.32-.95-4.35-.03-.14,0-.27,.07-.37,.1-.14,.2-.2,.34-.24l4.05-.78c.24-.03,.48,.1,.58,.31,.03,.1,.71,1.94,1.22,4.18,.51,2.28,.68,4.29,.68,4.39,.03,.24-.17,.48-.41,.51l-4.29,.88c-.14,.03-.31,0-.41-.07s-.2-.2-.2-.34Zm19.28,7.01c-5.61,7.08-15.92,5.48-16.36,5.41-.17-.03-.31-.14-.37-.31l-2.41-6.26c-.07-.14-.03-.31,.03-.44,.07-.14,.2-.2,.37-.24,.03,0,5.44-.88,9.66-4.86,2.72-2.58,3.27-7.82,3.37-9.96,0-.27,.24-.48,.51-.48l7.55,.34c.24,.03,.48,.24,.48,.48,.2,2.75,.58,12.04-2.82,16.33Zm-14.73-16.7c-.03-.14,0-.27,.07-.41,.07-.1,.2-.17,.34-.2l4.05-.78c.24-.03,.48,.07,.54,.31,.03,.07,.75,1.91,1.26,4.18,.48,2.25,.65,4.29,.68,4.35,0,.27-.17,.51-.41,.54l-4.32,.88c-.14,.03-.27,0-.37-.07-.14-.07-.2-.2-.24-.34l-.68-4.12c-.34-1.97-.92-4.32-.92-4.35Z"/>
      <path d="M228.34,17.32l-1.29,7.01c-.03,.2-.2,.37-.41,.41s-5.2,.88-9.66-.92c-.95-.38-1.84-.99-2.65-1.67-.27,5.82-.68,10.07-.68,10.1-.03,.27-.27,.48-.51,.48h-9.8c-.24,0-.48-.2-.51-.48,0-.07-.54-5.92-.82-13.3-.27-7.41-.1-13.26-.1-13.33,0-.27,.24-.48,.51-.48h11.63c.27,0,.51,.2,.51,.48,0,.03,.07,2.65,.03,6.56l2.96-1.73c.24-.14,.54-.03,.71,.17,0,.03,1.8,2.86,4.18,4.29,2.45,1.46,5.41,1.8,5.44,1.84,.14,0,.27,.07,.34,.2,.1,.1,.14,.24,.1,.37Z"/>
      <path d="M262.65,7.8l-.24,3.23c0,.27-.24,.48-.51,.48-.07,0-6.43-.1-13.06-.1h-.34c.03,.68,.07,1.36,.1,1.8,.78-.07,2.38-.14,4.97,.34,.48,.07,.92,.2,1.33,.31,3.3-.41,6.26-.58,6.46-.58,.27-.03,.51,.17,.54,.44l.31,3.71c.03,.27-.17,.51-.41,.58-.61,.1-1.39,.24-2.28,.44,.14,.41,.24,.78,.27,1.05,.34,2.11-.03,4.05-.07,4.12-.03,.2-.2,.37-.44,.41l-5.95,.82c-.27,.03-.51-.14-.58-.37,0-.03-.37-1.43-1.16-2.89-.85,.68-1.36,1.39-1.29,2.21,.07,.44,.27,.82,.68,1.16,2.31,1.84,9.18,.99,9.25,.99,.14-.03,.31,0,.41,.1,.1,.1,.17,.24,.17,.37l.2,4.59c.03,.24-.14,.44-.37,.51-.07,0-5.41,1.29-10.88,1.26-7.65-.1-11.5-2.35-11.77-6.9-.2-3.06,1.73-5.65,4.25-7.55-1.9,0-3.84,.1-3.88,.1-.14,.03-.27-.03-.37-.1-.1-.1-.17-.24-.17-.37,0-.03-.1-2.75,.07-5.75,0-.24,.03-.48,.03-.68-1.53,0-2.48,.03-2.52,.03-.27,0-.51-.2-.51-.48l-.17-3.26c-.03-.27,.2-.51,.48-.54,.03,0,1.26-.07,3.3-.14,.17-1.16,.34-1.97,.34-2.08,.07-.24,.31-.41,.54-.41l8.88,.44c.14,0,.27,.07,.37,.17,.07,.1,.1,.2,.1,.34v.03s-.03,.58-.1,1.29h.2c7.58,0,13.26,.34,13.33,.34,.14,0,.24,.07,.34,.17,.1,.1,.14,.24,.14,.38Z"/>
      <path d="M279.24,14.06c-.31,.78-.68,1.53-1.09,2.25h1.56c.27,0,.48,.2,.51,.44,0,.03,.27,3.47,.41,7.75,.14,4.32,.07,7.72,.07,7.75,0,.27-.24,.51-.51,.51h-6.46c-.27,0-.51-.24-.51-.51,0-.03-.07-3.44,.07-7.75,.03-.99,.07-1.94,.1-2.82-1.12,.95-2.01,1.5-2.07,1.56-.14,.1-.31,.1-.44,.07-.17-.07-.27-.17-.34-.34l-1.84-5.34c-.03-.14,0-.31,.07-.41,0-.03,1.7-2.96,2.93-6.39,1.05-2.99,1.94-7.18,1.97-7.21,.03-.24,.24-.41,.48-.41h6.33c.14,0,.27,.07,.37,.17,.07,.07,.14,.2,.14,.34,0,.24-.03,5.82-1.73,10.34Zm14.46-.75h-.03c.03,.71,.03,1.46,.07,2.21,2.62,0,4.66,.14,4.69,.14,.27,.03,.48,.24,.48,.51v4.08c0,.27-.2,.48-.48,.51-.03,0-2.04,.14-4.63,.14v2.01c2.58,0,4.59,.17,4.63,.17,.27,0,.48,.24,.48,.51v4.05c0,.27-.2,.51-.48,.51-.03,0-2.04,.17-4.59,.17v3.84c0,.31-.24,.51-.51,.51h-6.9c-.31,0-.51-.2-.51-.51,0-.03-.03-5.44,.03-13.4,.03-1.77,.07-3.91,.14-5.75-1.39-.24-2.31-.58-2.79-1.05-1.12-1.12-1.36-2.31-1.39-4.12-.07-2.52,.61-4.62,.65-4.73,.07-.14,.2-.24,.37-.24l5.44,.38c.1,0,.2,.03,.27,.1,.07,.1,.1,.2,.07,.31,0,0-.1,.92-.03,1.43,.1,.58,.37,.68,.61,.75,1.02,.2,2.65,.2,4.32,.2s4.86-.14,4.9-.14c.07,0,.17,.03,.24,.1,.07,.07,.14,.17,.14,.27l.14,6.26c0,.17-.1,.34-.31,.37-.07,0-1.94,.34-5,.41Z"/>
      <path d="M332.46,23.41v.34c-.2,6.02-4.49,9.05-12.72,9.05-11.8,0-13.09-4.86-13.09-6.94,0-1.39,.54-2.65,1.53-3.64,1.63-1.6,4.32-2.48,7.65-2.45-.92-.68-1.97-1.26-2.82-1.67-.17-.1-.31-.27-.31-.48v-2.75c0-.2,.17-.41,.37-.48,3.13-1.09,5.51-2.45,5.51-2.96-.07-.61-3.44-.65-4.52-.65l-.44-.03c-2.01,0-5.2,.14-5.24,.14-.27,.03-.51-.17-.51-.48l-.24-3.78c-.03-.17,.07-.31,.17-.41s.31-.14,.44-.14h-.07l.82-.1c1.7-.27,5.71-.85,11.36-.71,4.69,.14,10.95,.88,11.05,5.99v.2c0,2.89-1.29,4.59-2.04,5.34,1.02,.82,3.09,2.92,3.09,6.6Zm-17.86,1.46c0,.24,0,1.02,1.39,1.02,.99,0,1.53-.37,1.87-1.36-.48-.31-1.05-.54-1.7-.54-.99,0-1.56,.48-1.56,.88Z"/>
      <path d="M365.82,12.97c0,4.18-2.04,6.16-3.64,7.72l-.92,.88c-1.67,1.8-2.75,3.81-2.75,3.84-.1,.17-.27,.27-.44,.27h-10.34c-.14,0-.27-.07-.37-.17s-.14-.24-.14-.37c.03-.1,.24-2.42,1.8-4.9l.61-.95c1.09-1.67,2.11-3.26,1.56-4.52-.58-1.43-2.79-1.7-4.73-1.33-1.6,.34-3.3,1.29-3.3,1.33-.14,.07-.27,.07-.41,.03-.14-.03-.24-.14-.31-.24l-2.58-4.76c-.1-.17-.07-.37,.03-.54,.14-.2,3.78-5.1,13.57-5.1,9.08,0,12.35,4.56,12.35,8.81Zm-6.97,16.87c.14,1.33,.07,2.38,.07,2.42-.03,.27-.27,.48-.51,.48h-11.12c-.27,0-.48-.2-.51-.48,0-.03-.07-1.09,.03-2.42l.24-2.35c.03-.24,.24-.44,.51-.44h10.54c.27,0,.48,.2,.51,.44l.24,2.35Z"/>
    </g>
  </g>
</svg>